<?xml version="1.0" standalone="no"?><!DOCTYPE svg PUBLIC "-//W3C//DTD SVG 1.1//EN" "http://www.w3.org/Graphics/SVG/1.1/DTD/svg11.dtd"><svg t="1542702346692" class="icon" style="" viewBox="0 0 1024 1024" version="1.1" xmlns="http://www.w3.org/2000/svg" p-id="2582" xmlns:xlink="http://www.w3.org/1999/xlink" width="64" height="64"><defs><style type="text/css"></style></defs><path d="M916.83 659.6a346.53 346.53 0 0 0-233.46-213.78q0.64-7.37 0.63-14.91V304.15l2.32-0.56A27 27 0 0 0 707 277.33v-69c0-40.15-7.86-72.88-23.33-97.27-19.3-30.43-49.55-46.52-87.48-46.52a27 27 0 0 0-7.13 1L554.11 75l-78.79-10.3a27 27 0 0 0-3.5-0.23c-41.33 0-79.74 13.77-108.12 38.78-30.11 26.53-46.7 63.82-46.7 105v82a27 27 0 0 0 16.38 24.83L340 318v112.91c0 5 0 10 0.46 14.89C191.9 485.91 86 622.07 86 777.44v153.42C86 945.77 98.55 958 113.46 958h797.08c14.91 0 27.46-12.23 27.46-27.14V777.44a340.37 340.37 0 0 0-21.17-117.84z m-687-90.91a291.48 291.48 0 0 1 33.57-27.74 252.12 252.12 0 0 0 497.13 0 291.65 291.65 0 0 1 33.55 27.75 375 375 0 0 0-2.16 335.3H232.08a372.48 372.48 0 0 0 38.47-165.47 374.55 374.55 0 0 0-40.68-169.84zM371 208.29c0-25.83 9.83-48.13 28.4-64.49 18.14-16 43.21-24.94 70.73-25.28l82.36 10.76a27 27 0 0 0 10.63-0.73l36.42-10c17.49 0.76 29.8 7.61 38.52 21.37 9.76 15.39 14.93 39 14.93 68.35V256l-78.22 18.76-67.91-59.88a27 27 0 0 0-39.23 3.74l-55.25 71.48L371 272.5zM410.36 348a27 27 0 0 0 32-8.32l50.39-65.21 56.82 50.1a27.07 27.07 0 0 0 24.19 6L630 317.1v113.81a118 118 0 0 1-236 0V341zM512 602.84c70.93 0 132-43.18 158.2-104.63a287.18 287.18 0 0 1 39.4 14c-6.88 103-92.87 184.73-197.6 184.73s-190.72-81.77-197.6-184.79a287.44 287.44 0 0 1 39.4-14c26.2 61.5 87.27 104.69 158.2 104.69z m-372 174.6A288.45 288.45 0 0 1 191.18 614a321.05 321.05 0 0 1 25.25 124.55A319.22 319.22 0 0 1 170.54 904H140zM884 904h-30.55a319.62 319.62 0 0 1-20.65-289.95C865.08 661 884 717.53 884 777.44z" fill="#2d8cf0" p-id="2583"></path></svg>